<svg 
 xmlns="http://www.w3.org/2000/svg"
 xmlns:xlink="http://www.w3.org/1999/xlink"
 width="33px" height="50px" viewBox="0 0 width height">
<defs>
<linearGradient id="PSgrad_0" x1="100%" x2="0%" y1="0%" y2="0%">
  <stop offset="0%" stop-color="rgb(234,35,110)" stop-opacity="1" />
  <stop offset="100%" stop-color="rgb(31,171,211)" stop-opacity="1" />
</linearGradient>

</defs>
<path fill-rule="evenodd"  fill="rgb(0, 0, 0)"
 d="M28.911,27.046 C28.465,27.537 27.998,28.008 27.500,28.448 C25.777,29.963 25.072,31.375 25.061,33.299 C25.051,33.309 25.051,33.309 25.061,33.340 L25.041,35.346 C25.030,36.359 24.200,37.167 23.173,37.167 C23.162,37.167 23.162,37.167 23.152,37.167 C22.125,37.157 21.294,36.318 21.305,35.305 L21.326,33.299 C21.336,30.331 22.509,27.916 25.010,25.716 C25.394,25.368 25.767,25.010 26.110,24.621 C30.354,19.883 30.364,12.730 26.120,7.982 C23.681,5.249 20.184,3.684 16.511,3.684 C12.847,3.684 9.340,5.249 6.901,7.982 C2.647,12.740 2.657,19.904 6.932,24.652 C7.275,25.020 7.638,25.388 8.012,25.716 C10.554,27.957 11.737,30.392 11.727,33.401 L11.727,33.412 L11.706,35.325 C11.696,36.338 10.865,37.147 9.838,37.147 C9.828,37.147 9.828,37.147 9.817,37.147 C8.790,37.137 7.960,36.297 7.970,35.284 L7.991,33.371 C7.991,31.447 7.254,29.983 5.521,28.459 C5.033,28.029 4.567,27.568 4.131,27.087 C1.474,24.140 0.011,20.313 0.001,16.322 C-0.010,12.331 1.443,8.493 4.089,5.546 C7.233,2.016 11.758,-0.000 16.500,-0.000 C21.243,-0.000 25.767,2.016 28.911,5.536 C31.547,8.483 33.000,12.311 33.000,16.291 C33.000,20.282 31.547,24.099 28.911,27.046 ZM14.632,35.305 C14.632,35.305 14.632,26.371 14.632,23.670 L10.014,19.126 C9.288,18.399 9.288,17.233 10.014,16.516 C10.751,15.800 11.934,15.800 12.661,16.516 L17.818,21.602 C18.129,21.909 18.368,22.370 18.368,23.045 L18.368,35.305 C18.368,36.318 17.528,37.147 16.500,37.147 C15.473,37.147 14.632,36.318 14.632,35.305 ZM19.354,17.478 L20.340,16.506 C21.077,15.790 22.260,15.790 22.986,16.506 C23.712,17.233 23.712,18.399 22.986,19.116 L22.000,20.088 C21.627,20.456 21.149,20.630 20.672,20.630 C20.195,20.630 19.717,20.446 19.354,20.088 C18.628,19.361 18.628,18.194 19.354,17.478 ZM9.838,40.227 L23.162,40.227 C24.190,40.227 25.030,41.056 25.030,42.069 C25.030,43.092 24.200,43.911 23.173,43.911 L9.838,43.911 C8.811,43.911 7.970,43.082 7.970,42.069 C7.970,41.056 8.811,40.227 9.838,40.227 ZM12.899,46.316 L20.091,46.316 C21.118,46.316 21.959,47.145 21.959,48.157 C21.959,49.171 21.118,50.000 20.091,50.000 L12.899,50.000 C11.872,50.000 11.032,49.171 11.032,48.157 C11.032,47.145 11.872,46.316 12.899,46.316 Z"/>
<path fill="url(#PSgrad_0)"
 d="M28.911,27.046 C28.465,27.537 27.998,28.008 27.500,28.448 C25.777,29.963 25.072,31.375 25.061,33.299 C25.051,33.309 25.051,33.309 25.061,33.340 L25.041,35.346 C25.030,36.359 24.200,37.167 23.173,37.167 C23.162,37.167 23.162,37.167 23.152,37.167 C22.125,37.157 21.294,36.318 21.305,35.305 L21.326,33.299 C21.336,30.331 22.509,27.916 25.010,25.716 C25.394,25.368 25.767,25.010 26.110,24.621 C30.354,19.883 30.364,12.730 26.120,7.982 C23.681,5.249 20.184,3.684 16.511,3.684 C12.847,3.684 9.340,5.249 6.901,7.982 C2.647,12.740 2.657,19.904 6.932,24.652 C7.275,25.020 7.638,25.388 8.012,25.716 C10.554,27.957 11.737,30.392 11.727,33.401 L11.727,33.412 L11.706,35.325 C11.696,36.338 10.865,37.147 9.838,37.147 C9.828,37.147 9.828,37.147 9.817,37.147 C8.790,37.137 7.960,36.297 7.970,35.284 L7.991,33.371 C7.991,31.447 7.254,29.983 5.521,28.459 C5.033,28.029 4.567,27.568 4.131,27.087 C1.474,24.140 0.011,20.313 0.001,16.322 C-0.010,12.331 1.443,8.493 4.089,5.546 C7.233,2.016 11.758,-0.000 16.500,-0.000 C21.243,-0.000 25.767,2.016 28.911,5.536 C31.547,8.483 33.000,12.311 33.000,16.291 C33.000,20.282 31.547,24.099 28.911,27.046 ZM14.632,35.305 C14.632,35.305 14.632,26.371 14.632,23.670 L10.014,19.126 C9.288,18.399 9.288,17.233 10.014,16.516 C10.751,15.800 11.934,15.800 12.661,16.516 L17.818,21.602 C18.129,21.909 18.368,22.370 18.368,23.045 L18.368,35.305 C18.368,36.318 17.528,37.147 16.500,37.147 C15.473,37.147 14.632,36.318 14.632,35.305 ZM19.354,17.478 L20.340,16.506 C21.077,15.790 22.260,15.790 22.986,16.506 C23.712,17.233 23.712,18.399 22.986,19.116 L22.000,20.088 C21.627,20.456 21.149,20.630 20.672,20.630 C20.195,20.630 19.717,20.446 19.354,20.088 C18.628,19.361 18.628,18.194 19.354,17.478 ZM9.838,40.227 L23.162,40.227 C24.190,40.227 25.030,41.056 25.030,42.069 C25.030,43.092 24.200,43.911 23.173,43.911 L9.838,43.911 C8.811,43.911 7.970,43.082 7.970,42.069 C7.970,41.056 8.811,40.227 9.838,40.227 ZM12.899,46.316 L20.091,46.316 C21.118,46.316 21.959,47.145 21.959,48.157 C21.959,49.171 21.118,50.000 20.091,50.000 L12.899,50.000 C11.872,50.000 11.032,49.171 11.032,48.157 C11.032,47.145 11.872,46.316 12.899,46.316 Z"/>
</svg>