<svg 
 xmlns="http://www.w3.org/2000/svg"
 xmlns:xlink="http://www.w3.org/1999/xlink"
 width="53px" height="40px" viewBox="0 0 width height">
<defs>
<linearGradient id="PSgrad_0" x1="100%" x2="0%" y1="0%" y2="0%">
  <stop offset="0%" stop-color="rgb(234,35,110)" stop-opacity="1" />
  <stop offset="100%" stop-color="rgb(31,171,211)" stop-opacity="1" />
</linearGradient>

</defs>
<path fill-rule="evenodd"  fill="rgb(0, 0, 0)"
 d="M45.275,-0.000 C43.808,-0.000 42.545,0.898 41.482,2.385 L6.314,14.815 C5.640,13.853 4.790,13.333 3.860,13.333 C1.656,13.333 -0.005,16.200 -0.005,20.000 C-0.005,23.800 1.656,26.666 3.860,26.666 C4.790,26.666 5.640,26.146 6.314,25.184 L12.982,27.542 L11.690,29.711 C11.264,30.426 11.038,31.246 11.038,32.080 C11.038,33.975 12.167,35.653 13.914,36.355 L22.045,39.626 C22.665,39.875 23.313,39.995 23.951,39.995 C25.870,39.995 27.721,38.922 28.618,37.113 L30.328,33.671 L41.480,37.613 C42.542,39.102 43.808,39.999 45.275,39.999 C50.295,39.999 53.005,29.695 53.005,20.000 C53.005,10.304 50.295,-0.000 45.275,-0.000 ZM24.664,35.126 C24.499,35.459 24.033,35.644 23.686,35.497 L15.555,32.226 L15.478,31.995 L17.239,29.044 L26.127,32.186 L24.664,35.126 ZM45.275,35.555 C44.283,35.555 41.961,30.264 41.961,20.000 C41.961,9.735 44.283,4.444 45.275,4.444 C46.266,4.444 48.588,9.735 48.588,20.000 C48.588,30.264 46.266,35.555 45.275,35.555 Z"/>
<path fill="url(#PSgrad_0)"
 d="M45.275,-0.000 C43.808,-0.000 42.545,0.898 41.482,2.385 L6.314,14.815 C5.640,13.853 4.790,13.333 3.860,13.333 C1.656,13.333 -0.005,16.200 -0.005,20.000 C-0.005,23.800 1.656,26.666 3.860,26.666 C4.790,26.666 5.640,26.146 6.314,25.184 L12.982,27.542 L11.690,29.711 C11.264,30.426 11.038,31.246 11.038,32.080 C11.038,33.975 12.167,35.653 13.914,36.355 L22.045,39.626 C22.665,39.875 23.313,39.995 23.951,39.995 C25.870,39.995 27.721,38.922 28.618,37.113 L30.328,33.671 L41.480,37.613 C42.542,39.102 43.808,39.999 45.275,39.999 C50.295,39.999 53.005,29.695 53.005,20.000 C53.005,10.304 50.295,-0.000 45.275,-0.000 ZM24.664,35.126 C24.499,35.459 24.033,35.644 23.686,35.497 L15.555,32.226 L15.478,31.995 L17.239,29.044 L26.127,32.186 L24.664,35.126 ZM45.275,35.555 C44.283,35.555 41.961,30.264 41.961,20.000 C41.961,9.735 44.283,4.444 45.275,4.444 C46.266,4.444 48.588,9.735 48.588,20.000 C48.588,30.264 46.266,35.555 45.275,35.555 Z"/>
</svg>