<svg 
 xmlns="http://www.w3.org/2000/svg"
 xmlns:xlink="http://www.w3.org/1999/xlink"
 width="46px" height="40px" viewBox="0 0 width height">
<defs>
<linearGradient id="PSgrad_0" x1="100%" x2="0%" y1="0%" y2="0%">
  <stop offset="0%" stop-color="rgb(234,35,110)" stop-opacity="1" />
  <stop offset="100%" stop-color="rgb(31,171,211)" stop-opacity="1" />
</linearGradient>

</defs>
<path fill-rule="evenodd"  fill="rgb(0, 0, 0)"
 d="M32.056,40.000 C26.284,40.000 21.330,34.981 19.212,27.825 C21.091,26.877 22.797,25.442 24.258,23.623 C24.741,24.045 25.491,24.321 26.342,24.321 C27.803,24.321 28.988,22.597 28.988,21.609 C28.988,20.622 27.804,20.744 26.342,20.744 C26.287,20.744 26.234,20.753 26.180,20.755 C27.307,18.730 28.190,16.431 28.742,13.926 C29.811,13.995 30.913,14.039 32.056,14.039 C36.759,14.039 40.941,13.425 43.651,12.469 C43.960,12.360 44.301,12.386 44.589,12.541 C44.878,12.697 45.089,12.966 45.170,13.285 C45.704,15.397 46.000,17.672 46.000,20.049 C46.000,31.067 39.757,40.000 32.056,40.000 ZM26.354,32.983 C26.354,33.394 26.410,33.790 26.500,34.174 C26.524,34.279 26.602,34.364 26.705,34.399 C26.807,34.432 26.920,34.411 27.003,34.342 C28.089,33.426 29.937,32.817 32.056,32.817 C34.176,32.817 36.024,33.426 37.110,34.342 C37.192,34.411 37.305,34.433 37.408,34.399 C37.510,34.365 37.588,34.279 37.613,34.174 C37.703,33.790 37.758,33.394 37.758,32.983 C37.758,29.823 35.206,27.262 32.056,27.262 C28.907,27.262 26.354,29.823 26.354,32.983 ZM37.770,20.744 C36.309,20.744 35.124,20.621 35.124,21.609 C35.124,22.597 36.309,24.321 37.770,24.321 C39.232,24.321 40.416,23.520 40.416,22.532 C40.416,21.545 39.232,20.744 37.770,20.744 ZM13.944,27.596 C6.243,27.596 -0.000,18.664 -0.000,7.645 C-0.000,5.268 0.296,2.994 0.830,0.882 C0.910,0.564 1.122,0.294 1.411,0.139 C1.582,0.047 1.772,-0.000 1.963,-0.000 C2.093,-0.000 2.224,0.021 2.349,0.066 C5.059,1.021 9.240,1.635 13.944,1.635 C18.647,1.635 22.828,1.021 25.539,0.066 C25.664,0.021 25.795,-0.000 25.926,-0.000 C26.117,-0.000 26.306,0.046 26.477,0.138 C26.766,0.293 26.977,0.563 27.057,0.882 C27.592,2.994 27.887,5.268 27.887,7.645 C27.887,18.664 21.645,27.596 13.944,27.596 ZM8.230,8.336 C6.768,8.336 5.584,9.137 5.584,10.125 C5.584,11.112 6.768,11.913 8.230,11.913 C9.691,11.913 10.876,12.035 10.876,11.048 C10.876,10.060 9.691,8.336 8.230,8.336 ZM13.944,18.269 C11.824,18.269 9.976,17.660 8.890,16.745 C8.808,16.676 8.695,16.654 8.592,16.688 C8.490,16.722 8.412,16.807 8.387,16.912 C8.297,17.296 8.242,17.692 8.242,18.104 C8.242,21.263 10.795,23.824 13.944,23.824 C17.093,23.824 19.646,21.263 19.646,18.104 C19.646,17.692 19.590,17.296 19.500,16.912 C19.476,16.807 19.398,16.722 19.295,16.688 C19.193,16.653 19.080,16.675 18.997,16.745 C17.911,17.660 16.063,18.269 13.944,18.269 ZM22.304,10.125 C22.304,9.137 21.119,8.336 19.658,8.336 C18.196,8.336 17.012,10.060 17.012,11.048 C17.012,12.035 18.196,11.913 19.658,11.913 C21.119,11.913 22.304,11.112 22.304,10.125 Z"/>
<path fill="url(#PSgrad_0)"
 d="M32.056,40.000 C26.284,40.000 21.330,34.981 19.212,27.825 C21.091,26.877 22.797,25.442 24.258,23.623 C24.741,24.045 25.491,24.321 26.342,24.321 C27.803,24.321 28.988,22.597 28.988,21.609 C28.988,20.622 27.804,20.744 26.342,20.744 C26.287,20.744 26.234,20.753 26.180,20.755 C27.307,18.730 28.190,16.431 28.742,13.926 C29.811,13.995 30.913,14.039 32.056,14.039 C36.759,14.039 40.941,13.425 43.651,12.469 C43.960,12.360 44.301,12.386 44.589,12.541 C44.878,12.697 45.089,12.966 45.170,13.285 C45.704,15.397 46.000,17.672 46.000,20.049 C46.000,31.067 39.757,40.000 32.056,40.000 ZM26.354,32.983 C26.354,33.394 26.410,33.790 26.500,34.174 C26.524,34.279 26.602,34.364 26.705,34.399 C26.807,34.432 26.920,34.411 27.003,34.342 C28.089,33.426 29.937,32.817 32.056,32.817 C34.176,32.817 36.024,33.426 37.110,34.342 C37.192,34.411 37.305,34.433 37.408,34.399 C37.510,34.365 37.588,34.279 37.613,34.174 C37.703,33.790 37.758,33.394 37.758,32.983 C37.758,29.823 35.206,27.262 32.056,27.262 C28.907,27.262 26.354,29.823 26.354,32.983 ZM37.770,20.744 C36.309,20.744 35.124,20.621 35.124,21.609 C35.124,22.597 36.309,24.321 37.770,24.321 C39.232,24.321 40.416,23.520 40.416,22.532 C40.416,21.545 39.232,20.744 37.770,20.744 ZM13.944,27.596 C6.243,27.596 -0.000,18.664 -0.000,7.645 C-0.000,5.268 0.296,2.994 0.830,0.882 C0.910,0.564 1.122,0.294 1.411,0.139 C1.582,0.047 1.772,-0.000 1.963,-0.000 C2.093,-0.000 2.224,0.021 2.349,0.066 C5.059,1.021 9.240,1.635 13.944,1.635 C18.647,1.635 22.828,1.021 25.539,0.066 C25.664,0.021 25.795,-0.000 25.926,-0.000 C26.117,-0.000 26.306,0.046 26.477,0.138 C26.766,0.293 26.977,0.563 27.057,0.882 C27.592,2.994 27.887,5.268 27.887,7.645 C27.887,18.664 21.645,27.596 13.944,27.596 ZM8.230,8.336 C6.768,8.336 5.584,9.137 5.584,10.125 C5.584,11.112 6.768,11.913 8.230,11.913 C9.691,11.913 10.876,12.035 10.876,11.048 C10.876,10.060 9.691,8.336 8.230,8.336 ZM13.944,18.269 C11.824,18.269 9.976,17.660 8.890,16.745 C8.808,16.676 8.695,16.654 8.592,16.688 C8.490,16.722 8.412,16.807 8.387,16.912 C8.297,17.296 8.242,17.692 8.242,18.104 C8.242,21.263 10.795,23.824 13.944,23.824 C17.093,23.824 19.646,21.263 19.646,18.104 C19.646,17.692 19.590,17.296 19.500,16.912 C19.476,16.807 19.398,16.722 19.295,16.688 C19.193,16.653 19.080,16.675 18.997,16.745 C17.911,17.660 16.063,18.269 13.944,18.269 ZM22.304,10.125 C22.304,9.137 21.119,8.336 19.658,8.336 C18.196,8.336 17.012,10.060 17.012,11.048 C17.012,12.035 18.196,11.913 19.658,11.913 C21.119,11.913 22.304,11.112 22.304,10.125 Z"/>
</svg>