<svg 
 xmlns="http://www.w3.org/2000/svg"
 xmlns:xlink="http://www.w3.org/1999/xlink"
 width="50px" height="50px" viewBox="0 0 width height">
<defs>
<linearGradient id="PSgrad_0" x1="100%" x2="0%" y1="0%" y2="0%">
  <stop offset="0%" stop-color="rgb(234,35,110)" stop-opacity="1" />
  <stop offset="100%" stop-color="rgb(31,171,211)" stop-opacity="1" />
</linearGradient>

</defs>
<path fill-rule="evenodd"  fill="rgb(0, 0, 0)"
 d="M45.833,29.710 L45.833,8.333 C45.833,6.035 43.963,4.166 41.667,4.166 L36.458,4.166 C35.882,4.166 35.417,4.632 35.417,5.208 L35.417,10.416 C35.417,11.565 34.483,12.500 33.333,12.500 C32.184,12.500 31.250,11.565 31.250,10.416 C31.250,9.545 31.809,8.761 32.642,8.465 C33.057,8.317 33.333,7.924 33.333,7.484 L33.333,1.041 C33.333,0.466 32.867,-0.000 32.292,-0.000 C31.716,-0.000 31.250,0.466 31.250,1.041 L31.250,4.166 L15.625,4.166 C15.049,4.166 14.583,4.632 14.583,5.208 L14.583,10.416 C14.583,11.565 13.649,12.500 12.500,12.500 C11.351,12.500 10.417,11.565 10.417,10.416 C10.417,9.545 10.976,8.761 11.808,8.465 C12.223,8.317 12.500,7.924 12.500,7.484 L12.500,1.041 C12.500,0.466 12.034,-0.000 11.458,-0.000 C10.882,-0.000 10.416,0.466 10.416,1.041 L10.416,4.166 L4.167,4.166 C1.870,4.166 -0.000,6.035 -0.000,8.333 L-0.000,41.666 C-0.000,43.964 1.870,45.833 4.167,45.833 L29.710,45.833 C31.814,48.376 34.992,50.000 38.542,50.000 C44.859,50.000 50.000,44.860 50.000,38.541 C50.000,34.991 48.376,31.813 45.833,29.710 ZM27.083,38.541 C27.083,39.626 27.245,40.671 27.527,41.666 L4.167,41.666 L4.167,16.667 L41.667,16.667 L41.667,27.527 C40.672,27.244 39.626,27.083 38.542,27.083 C32.224,27.083 27.083,32.223 27.083,38.541 ZM42.403,42.403 C42.200,42.606 41.933,42.708 41.667,42.708 C41.400,42.708 41.134,42.606 40.930,42.403 L37.805,39.278 C37.610,39.083 37.500,38.818 37.500,38.541 L37.500,32.291 C37.500,31.716 37.966,31.249 38.541,31.249 C39.117,31.249 39.583,31.716 39.583,32.291 L39.583,38.110 L42.403,40.930 C42.810,41.337 42.810,41.996 42.403,42.403 Z"/>
<path fill="url(#PSgrad_0)"
 d="M45.833,29.710 L45.833,8.333 C45.833,6.035 43.963,4.166 41.667,4.166 L36.458,4.166 C35.882,4.166 35.417,4.632 35.417,5.208 L35.417,10.416 C35.417,11.565 34.483,12.500 33.333,12.500 C32.184,12.500 31.250,11.565 31.250,10.416 C31.250,9.545 31.809,8.761 32.642,8.465 C33.057,8.317 33.333,7.924 33.333,7.484 L33.333,1.041 C33.333,0.466 32.867,-0.000 32.292,-0.000 C31.716,-0.000 31.250,0.466 31.250,1.041 L31.250,4.166 L15.625,4.166 C15.049,4.166 14.583,4.632 14.583,5.208 L14.583,10.416 C14.583,11.565 13.649,12.500 12.500,12.500 C11.351,12.500 10.417,11.565 10.417,10.416 C10.417,9.545 10.976,8.761 11.808,8.465 C12.223,8.317 12.500,7.924 12.500,7.484 L12.500,1.041 C12.500,0.466 12.034,-0.000 11.458,-0.000 C10.882,-0.000 10.416,0.466 10.416,1.041 L10.416,4.166 L4.167,4.166 C1.870,4.166 -0.000,6.035 -0.000,8.333 L-0.000,41.666 C-0.000,43.964 1.870,45.833 4.167,45.833 L29.710,45.833 C31.814,48.376 34.992,50.000 38.542,50.000 C44.859,50.000 50.000,44.860 50.000,38.541 C50.000,34.991 48.376,31.813 45.833,29.710 ZM27.083,38.541 C27.083,39.626 27.245,40.671 27.527,41.666 L4.167,41.666 L4.167,16.667 L41.667,16.667 L41.667,27.527 C40.672,27.244 39.626,27.083 38.542,27.083 C32.224,27.083 27.083,32.223 27.083,38.541 ZM42.403,42.403 C42.200,42.606 41.933,42.708 41.667,42.708 C41.400,42.708 41.134,42.606 40.930,42.403 L37.805,39.278 C37.610,39.083 37.500,38.818 37.500,38.541 L37.500,32.291 C37.500,31.716 37.966,31.249 38.541,31.249 C39.117,31.249 39.583,31.716 39.583,32.291 L39.583,38.110 L42.403,40.930 C42.810,41.337 42.810,41.996 42.403,42.403 Z"/>
</svg>